<svg width="48" height="43" fill="none" xmlns="http://www.w3.org/2000/svg"><path fill-rule="evenodd" clip-rule="evenodd" d="M.004 0h39.09v5.234l-8.34 4.42H.003V0zm4.051 6.208h2.813v-2.82H4.055v2.82zm6.133 0v-2.82h2.813v2.82h-2.813zm20 6.287v5.958c0 1.255.18 2.5.529 3.696H.003v-9.654h30.183zM4.054 18.732h2.813v-2.82H4.055v2.82zm8.946 0h-2.813v-2.82H13v2.82zm26.093 12.18a13.054 13.054 0 01-7.179-5.922H.004v9.654h39.09v-3.732zm-32.226.315H4.055v-2.82h2.813v2.82zm3.32 0H13v-2.82h-2.813v2.82zm8.447 6.258h2.813v2.673h18.639V43H0v-2.842h18.635v-2.673z" fill="#1D46F6"/><path fill-rule="evenodd" clip-rule="evenodd" d="M40.5 7.697l7.5 3.975v6.781c0 4.671-3.067 8.704-7.5 9.922-4.433-1.218-7.5-5.25-7.5-9.922v-6.781l7.5-3.975zm-5 10.563l4.17 4.159 5.837-5.897-1.988-2.01-3.862 3.901-2.182-2.176-1.976 2.023z" fill="#ED3A4E"/></svg>