<svg width="48" height="45" fill="none" xmlns="http://www.w3.org/2000/svg"><path fill-rule="evenodd" clip-rule="evenodd" d="M24 45c2.328 0 4.216-1.87 4.216-4.175 0-2.306-1.888-4.175-4.216-4.175-2.328 0-4.216 1.869-4.216 4.175S21.672 45 24 45zm-6.887-5.568H0v2.786h17.113a6.906 6.906 0 010-2.786zm13.915 1.393c0 .477-.049.942-.141 1.393H48v-2.786H30.887c.092.45.141.916.141 1.393z" fill="#ED3A4E"/><path fill-rule="evenodd" clip-rule="evenodd" d="M25.406 34.004v-3.158h11.992c5.846 0 10.602-4.71 10.602-10.5s-4.756-10.5-10.602-10.5h-1.264a15.62 15.62 0 00-5.309-6.795A15.795 15.795 0 0021.444 0C13.412 0 6.694 5.97 5.742 13.764 2.316 15.05 0 18.314 0 22.017c0 4.868 3.999 8.829 8.914 8.829h13.68v3.158a7.097 7.097 0 012.812 0zM24 11.592c4.918 0 8.92 3.963 8.92 8.834h-2.813c0-3.335-2.74-6.049-6.107-6.049s-6.107 2.714-6.107 6.049H15.08c0-4.871 4.002-8.834 8.92-8.834zm-1.406 8.834v2.785h2.812v-2.785h-2.812z" fill="#1D46F6"/></svg>