<svg width="48" height="40" fill="none" xmlns="http://www.w3.org/2000/svg"><path fill-rule="evenodd" clip-rule="evenodd" d="M40.416 10.224H2.633v22.897h28.739a3.18 3.18 0 00-.418 1.127l-.259 1.53H1.317A1.322 1.322 0 010 34.448V1.328C0 .594.59 0 1.317 0h40.415c.727 0 1.316.594 1.316 1.328v20.78a3.12 3.12 0 00-1.772.899l-.86.868v-13.65zm-26.66 7.034a2.413 2.413 0 01-2.402 2.423 2.413 2.413 0 01-2.403-2.423 2.413 2.413 0 012.403-2.423 2.413 2.413 0 012.403 2.423zm20.341-1.992H17.904c-1.09 0-1.975.892-1.975 1.992s.884 1.992 1.975 1.992h16.193c1.09 0 1.975-.892 1.975-1.992s-.884-1.992-1.975-1.992zM11.354 27.648a2.413 2.413 0 002.403-2.423 2.413 2.413 0 00-2.403-2.424 2.413 2.413 0 00-2.403 2.424 2.413 2.413 0 002.403 2.423zm22.743-4.415H17.904c-1.09 0-1.975.892-1.975 1.992s.884 1.991 1.975 1.991h16.193c1.09 0 1.975-.891 1.975-1.991s-.884-1.992-1.975-1.992z" fill="#1D46F6"/><path fill-rule="evenodd" clip-rule="evenodd" d="M44.34 24.415l3.315 3.342c.222.224.345.523.345.84 0 .318-.123.617-.346.842l-2.276 2.296-4.982-5.024 2.277-2.297c.223-.224.518-.348.834-.348.315 0 .611.124.834.349zM32.902 34.578c.041-.243.155-.464.329-.64l6.022-6.073 4.981 5.025-6.021 6.073c-.174.175-.394.29-.638.331l-3.995.689a1.167 1.167 0 01-1.034-.333 1.195 1.195 0 01-.327-1.04l.683-4.032z" fill="#ED3A4E"/></svg>