<svg width="64" height="64" viewBox="0 0 64 64" fill="none" xmlns="http://www.w3.org/2000/svg">
<circle cx="32" cy="32" r="32" fill="#3EC4DB"/>
<path fill-rule="evenodd" clip-rule="evenodd" d="M32 19C37.3413 19 41.6893 23.188 41.972 28.456C45.3987 29.0733 48 32.064 48 35.6667C48 39.716 44.716 43 40.6667 43H23.3333C19.284 43 16 39.716 16 35.6667C16 32.064 18.6013 29.0733 22.028 28.456C22.3107 23.188 26.6587 19 32 19ZM26.6667 32.992C28.4907 34.684 29.4827 35.7987 30.9693 37.548C33.376 33.2293 35.0493 31.0093 37.3333 29.0173L37.036 28.3333C34.268 30.056 32.7773 31.3547 30.5227 33.9133C29.324 33.0587 28.6467 32.6653 27.58 32.1493L26.6667 32.992Z" fill="white"/>
</svg>
