<svg width="370" height="248" viewBox="0 0 370 248" fill="none" xmlns="http://www.w3.org/2000/svg">
<path d="M0 0H370V228.8C370 235.521 370 238.881 368.692 241.448C367.542 243.706 365.706 245.542 363.448 246.692C360.881 248 357.521 248 350.8 248H19.2C12.4794 248 9.11905 248 6.55211 246.692C4.29417 245.542 2.4584 243.706 1.30792 241.448C0 238.881 0 235.521 0 228.8V0Z" fill="white"/>
<circle cx="77" cy="72" r="24" stroke="#1D46F6" stroke-opacity="0.159817" stroke-width="16"/>
<path d="M77 32C72.5817 32 69 35.5817 69 40C69 44.4183 72.5817 48 77 48C90.2548 48 101 58.7452 101 72C101 85.2548 90.2548 96 77 96C63.7452 96 53 85.2548 53 72C53 66.7935 54.6528 61.8579 57.6757 57.7637C60.3001 54.2093 59.5461 49.2004 55.9917 46.576C52.4373 43.9517 47.4284 44.7056 44.804 48.26C39.7661 55.0834 37 63.3433 37 72C37 94.0914 54.9086 112 77 112C99.0914 112 117 94.0914 117 72C117 49.9086 99.0914 32 77 32Z" fill="#1D46F6"/>
<rect x="45" y="120" width="64" height="16" rx="4" fill="#1D46F6" fill-opacity="0.16"/>
<circle cx="185" cy="72" r="24" stroke="#61E4FA" stroke-opacity="0.32" stroke-width="16"/>
<path d="M185 32C180.582 32 177 35.5817 177 40C177 44.4183 180.582 48 185 48C198.255 48 209 58.7452 209 72C209 85.2548 198.255 96 185 96C171.745 96 161 85.2548 161 72C161 69.3961 161.412 66.8583 162.21 64.4479C163.599 60.2536 161.325 55.7275 157.131 54.3386C152.936 52.9496 148.41 55.2238 147.021 59.4181C145.687 63.4459 145 67.6815 145 72C145 94.0914 162.909 112 185 112C207.091 112 225 94.0914 225 72C225 49.9086 207.091 32 185 32Z" fill="#61E4FA"/>
<rect x="153" y="120" width="64" height="16" rx="4" fill="#61E4FA" fill-opacity="0.32"/>
<circle cx="293" cy="72" r="24" stroke="#F3953E" stroke-opacity="0.244594" stroke-width="16"/>
<path d="M293 32C288.582 32 285 35.5817 285 40C285 44.4183 288.582 48 293 48C306.255 48 317 58.7452 317 72C317 85.2548 306.255 96 293 96C279.745 96 269 85.2548 269 72C269 71.9456 269 71.9456 269 71.8913C269.02 67.4731 265.454 63.8756 261.036 63.8561C256.617 63.8367 253.02 67.4026 253 71.8208C253 71.9104 253 71.9104 253 72C253 94.0914 270.909 112 293 112C315.091 112 333 94.0914 333 72C333 49.9086 315.091 32 293 32Z" fill="#F3953E"/>
<rect x="261" y="120" width="64" height="16" rx="4" fill="#F3953E" fill-opacity="0.24"/>
<rect x="32" y="168" width="207" height="48" rx="6" fill="#ED3A4E"/>
<rect x="91" y="184" width="90" height="16" rx="4" fill="#FF6D7D"/>
</svg>
